<svg width="20" height="20" viewBox="0 0 20 20" fill="none" xmlns="http://www.w3.org/2000/svg">
<path d="M19.8508 9.3175C19.1192 7.7175 16.25 2.5 10 2.5C3.75002 2.5 0.880848 7.7175 0.149181 9.3175C0.0509633 9.53192 0.00012207 9.76499 0.00012207 10.0008C0.00012207 10.2367 0.0509633 10.4697 0.149181 10.6842C0.880848 12.2825 3.75002 17.5 10 17.5C16.25 17.5 19.1192 12.2825 19.8508 10.6825C19.9489 10.4683 19.9996 10.2355 19.9996 10C19.9996 9.76446 19.9489 9.53168 19.8508 9.3175ZM10 15.8333C4.74418 15.8333 2.29168 11.3617 1.66668 10.0092C2.29168 8.63833 4.74418 4.16667 10 4.16667C15.2433 4.16667 17.6967 8.61917 18.3333 10C17.6967 11.3808 15.2433 15.8333 10 15.8333Z" fill="#191919"/>
<path d="M10 5.8335C9.17595 5.8335 8.37037 6.07787 7.68517 6.53571C6.99996 6.99355 6.46591 7.64429 6.15054 8.40565C5.83518 9.16701 5.75267 10.0048 5.91344 10.813C6.07421 11.6213 6.47105 12.3637 7.05376 12.9464C7.63648 13.5292 8.37891 13.926 9.18717 14.0868C9.99542 14.2475 10.8332 14.165 11.5946 13.8497C12.3559 13.5343 13.0067 13.0002 13.4645 12.315C13.9223 11.6298 14.1667 10.8243 14.1667 10.0002C14.1654 8.8955 13.726 7.83646 12.9449 7.05535C12.1637 6.27423 11.1047 5.83482 10 5.8335ZM10 12.5002C9.50559 12.5002 9.02224 12.3535 8.61112 12.0788C8.19999 11.8041 7.87956 11.4137 7.69034 10.9569C7.50112 10.5001 7.45162 9.99739 7.54808 9.51244C7.64454 9.02748 7.88264 8.58203 8.23228 8.2324C8.58191 7.88276 9.02736 7.64466 9.51232 7.5482C9.99727 7.45174 10.4999 7.50124 10.9568 7.69046C11.4136 7.87968 11.804 8.20011 12.0787 8.61124C12.3534 9.02236 12.5 9.50571 12.5 10.0002C12.5 10.6632 12.2367 11.2991 11.7678 11.7679C11.299 12.2368 10.6631 12.5002 10 12.5002Z" fill="#191919"/>
</svg>
