<svg width="18" height="18" viewBox="0 0 18 18" fill="none" xmlns="http://www.w3.org/2000/svg">
<path d="M4.85759 16.4997H1.74777V6.48516H4.85759V16.4997ZM3.301 5.11908C2.30658 5.11908 1.5 4.29542 1.5 3.301C1.5 2.82335 1.68975 2.36526 2.0275 2.0275C2.36526 1.68975 2.82335 1.5 3.301 1.5C3.77866 1.5 4.23675 1.68975 4.57451 2.0275C4.91226 2.36526 5.10201 2.82335 5.10201 3.301C5.10201 4.29542 4.29509 5.11908 3.301 5.11908ZM16.4967 16.4997H13.3935V11.6247C13.3935 10.4628 13.3701 8.97288 11.7767 8.97288C10.1598 8.97288 9.91205 10.2352 9.91205 11.541V16.4997H6.80558V6.48516H9.78817V7.85123H9.8317C10.2469 7.0644 11.261 6.23404 12.7741 6.23404C15.9214 6.23404 16.5 8.30658 16.5 10.9985V16.4997H16.4967Z" fill="white"/>
</svg>
