<svg width="163" height="32" viewBox="0 0 163 32" fill="none" xmlns="http://www.w3.org/2000/svg">
<path d="M3.08827 19.6642C4.01156 18.6454 4.90302 17.4037 5.66713 16.0029C6.04918 15.3024 6.43124 14.5702 6.78145 13.806C7.13167 13.0419 7.48189 12.246 7.86394 11.3864C8.0868 10.9725 8.27783 10.5268 8.62805 10.0173C8.72356 9.88999 8.81907 9.76264 8.97826 9.63529C9.13745 9.50794 9.32848 9.34875 9.64685 9.25324C9.80604 9.18956 9.96524 9.15772 10.1563 9.15772C10.2518 9.15772 10.3473 9.15772 10.411 9.18956H10.4746C10.4428 9.18956 10.5702 9.2214 10.5702 9.2214H10.602C10.8249 9.28508 10.9522 9.38059 11.0796 9.44427C11.2069 9.53978 11.3024 9.60345 11.3979 9.69897C11.7163 10.0492 11.8755 10.3676 12.0029 10.6541C12.1302 10.9406 12.1939 11.1953 12.2894 11.45C12.4486 11.9595 12.5441 12.4689 12.6078 12.9464C12.958 14.8885 13.1172 16.7988 13.34 18.6772C13.4674 19.6005 13.5947 20.5238 13.7858 21.3516C13.8176 21.5108 13.8494 21.67 13.9131 21.8292C14.0405 21.7018 14.1678 21.5745 14.2952 21.4471C14.8364 20.9059 15.3458 20.2691 15.7916 19.6005C16.7149 18.2633 17.4471 16.8625 18.0202 15.4935C18.5933 14.1244 19.0072 12.7554 19.2937 11.4819C19.7076 9.60346 19.835 7.94788 19.8031 6.6107C17.7337 4.98697 15.0911 4 12.2576 4C5.4761 4 0 9.50794 0 16.2576C0 18.1042 0.413889 19.8552 1.14616 21.4153C1.81475 20.9696 2.45151 20.3646 3.08827 19.6642Z" fill="#D7C8C8"/>
<path d="M22.2865 17.4989C21.4587 19.0908 20.4399 20.6827 19.1664 22.1791C18.5297 22.9432 17.8292 23.6755 17.0014 24.3759C16.5876 24.7261 16.1418 25.0763 15.6006 25.3947C15.314 25.5539 14.9957 25.7131 14.5818 25.8723C14.4544 25.9041 14.3589 25.9359 14.2316 25.9678L14.0405 25.9996C14.0087 25.9996 13.945 25.9996 13.9132 26.0314H13.754H13.5948H13.5311H13.2764C13.0536 25.9996 12.8307 25.9678 12.6397 25.8723C12.2258 25.7131 11.9074 25.4902 11.6845 25.2673C11.4617 25.0445 11.3025 24.8216 11.207 24.6306C10.9841 24.2485 10.8567 23.8983 10.7612 23.6118C10.5702 23.0069 10.5065 22.4656 10.4429 21.9244C10.3155 20.8737 10.2837 19.8868 10.2518 18.8998C10.22 16.9577 10.2518 15.0474 10.1245 13.2645C10.0926 12.8188 10.0608 12.373 9.99712 11.991C9.99712 11.9273 9.96529 11.8318 9.96529 11.7681C9.86977 11.9273 9.74242 12.1183 9.64691 12.2775C9.20118 13.0098 8.78729 13.8057 8.37339 14.5698C7.92767 15.3339 7.48194 16.0662 7.00437 16.7667C6.04924 18.1675 4.99859 19.4092 3.9161 20.3962C3.15199 21.0966 2.38789 21.7015 1.62378 22.2109C3.72507 25.9678 7.73664 28.5148 12.3531 28.5148C19.1346 28.5148 24.6107 23.0069 24.6107 16.2572C24.6107 15.1429 24.4515 14.0604 24.1968 13.0416C23.6874 14.5062 23.0506 16.0025 22.2865 17.4989Z" fill="#D7C8C8"/>
<path d="M14.1676 20.6832C14.0085 19.9191 13.8811 19.0913 13.7856 18.359C13.6901 17.7223 13.6264 17.0855 13.5627 16.4488C13.4354 15.2389 13.2762 13.9654 13.0533 12.7237C12.9578 12.278 12.8623 11.7686 12.7031 11.1955C12.6394 10.9727 12.5439 10.6861 12.4166 10.3677V10.3359C12.2892 10.0494 12.13 9.69914 11.748 9.31708C11.6525 9.22157 11.5251 9.12606 11.3659 8.99871C11.2067 8.90319 11.0475 8.80768 10.7928 8.71217L10.7292 8.68033C10.6655 8.64849 10.6018 8.6485 10.57 8.6485H10.5381C10.4108 8.61666 10.3153 8.61666 10.2198 8.61666C9.99685 8.61666 9.77399 8.64849 9.58296 8.71217C9.2009 8.83952 8.91437 9.03055 8.75518 9.18973C8.56415 9.34892 8.4368 9.50811 8.34129 9.63546C7.99107 10.113 7.80004 10.5269 7.57717 10.909L7.5135 11.0363C7.32247 11.4821 7.13145 11.896 6.94042 12.3098C6.78123 12.6919 6.59021 13.074 6.43102 13.4242C6.04896 14.2201 5.69874 14.9205 5.34853 15.5573C4.58442 16.8945 3.75664 18.0725 2.83334 19.0595C2.38761 19.537 1.91005 20.0146 1.43248 20.4285C0.859395 19.0276 0.541016 17.5631 0.541016 16.0349C0.541016 9.63546 5.85793 4.41406 12.3847 4.41406C14.9954 4.41406 17.4469 5.21001 19.5164 6.73823C19.5164 8.23461 19.3254 9.73098 19.007 11.2274C18.7205 12.5327 18.3066 13.8381 17.7653 15.0797C17.1604 16.5124 16.4281 17.8496 15.5685 19.0276C15.0273 19.6962 14.5815 20.2375 14.1676 20.6832Z" fill="#D7C8C8"/>
<path d="M12.3213 28.1331C8.15055 28.1331 4.29817 25.9363 2.16504 22.3705C2.86547 21.8929 3.53407 21.3198 4.17082 20.7467C5.28515 19.6961 6.3358 18.4544 7.32277 17.0217C7.7685 16.3531 8.21423 15.6209 8.72363 14.7931C8.9465 14.411 9.13752 14.029 9.36039 13.6469C9.48774 13.4559 9.58325 13.233 9.71061 13.042C9.71061 13.1375 9.7106 13.2012 9.74244 13.2967C9.80612 14.4429 9.83796 15.6527 9.83796 16.8944C9.83796 17.563 9.83796 18.2316 9.86979 18.9001C9.90163 19.8553 9.93347 20.8741 10.0608 21.9566C10.1245 22.466 10.22 23.0391 10.411 23.7077C10.5066 24.026 10.6339 24.3763 10.8886 24.822C11.0478 25.1085 11.2388 25.3314 11.4298 25.5543C11.6527 25.7771 12.0348 26.0637 12.5442 26.2547C12.7989 26.3502 13.0536 26.4139 13.2764 26.4139H13.563H13.6585H13.8495L14.0405 26.382C14.1042 26.382 14.1997 26.3502 14.2316 26.3502L14.4226 26.3184C14.5818 26.2865 14.6773 26.2547 14.8047 26.2228C15.2822 26.0637 15.6006 25.9045 15.8871 25.7134C16.5239 25.3314 16.9696 24.9812 17.3517 24.6628C18.1158 24.026 18.8162 23.2938 19.5485 22.4023C20.7265 20.9696 21.809 19.3777 22.7323 17.6266C23.2417 16.6397 23.7192 15.6209 24.1013 14.5702C24.165 15.1114 24.2286 15.6527 24.2286 16.2258C24.165 22.8162 18.8481 28.1331 12.3213 28.1331Z" fill="#D7C8C8"/>
<path d="M32.158 25V6.80001H35.642L46.38 19.904H44.69V6.80001H48.85V25H45.392L34.628 11.896H36.318V25H32.158ZM59.812 25.208C58.2174 25.208 56.8134 24.896 55.6 24.272C54.404 23.648 53.4767 22.7987 52.818 21.724C52.1594 20.632 51.83 19.3927 51.83 18.006C51.83 16.602 52.1507 15.3627 52.792 14.288C53.4507 13.196 54.3434 12.3467 55.47 11.74C56.5967 11.116 57.8707 10.804 59.292 10.804C60.6614 10.804 61.892 11.0987 62.984 11.688C64.0934 12.26 64.9687 13.092 65.61 14.184C66.2514 15.2587 66.572 16.55 66.572 18.058C66.572 18.214 66.5634 18.396 66.546 18.604C66.5287 18.7947 66.5114 18.9767 66.494 19.15H55.132V16.784H64.362L62.802 17.486C62.802 16.758 62.6547 16.1253 62.36 15.588C62.0654 15.0507 61.658 14.6347 61.138 14.34C60.618 14.028 60.0114 13.872 59.318 13.872C58.6247 13.872 58.0094 14.028 57.472 14.34C56.952 14.6347 56.5447 15.0593 56.25 15.614C55.9554 16.1513 55.808 16.7927 55.808 17.538V18.162C55.808 18.9247 55.9727 19.6007 56.302 20.19C56.6487 20.762 57.1254 21.204 57.732 21.516C58.356 21.8107 59.084 21.958 59.916 21.958C60.6614 21.958 61.3114 21.8453 61.866 21.62C62.438 21.3947 62.958 21.0567 63.426 20.606L65.584 22.946C64.9427 23.674 64.1367 24.2373 63.166 24.636C62.1954 25.0173 61.0774 25.208 59.812 25.208ZM67.1235 25L73.3895 16.784L73.3115 19.02L67.3055 11.012H71.8555L75.6515 16.238L73.9355 16.29L77.8615 11.012H82.1775L76.1455 18.942V16.758L82.3855 25H77.7835L73.8055 19.436L75.4955 19.67L71.5435 25H67.1235ZM90.0744 25.208C88.4278 25.208 87.1451 24.792 86.2264 23.96C85.3078 23.1107 84.8484 21.854 84.8484 20.19V7.91801H88.9044V20.138C88.9044 20.7273 89.0604 21.1867 89.3724 21.516C89.6844 21.828 90.1091 21.984 90.6464 21.984C91.2878 21.984 91.8338 21.8107 92.2844 21.464L93.3764 24.324C92.9604 24.6187 92.4578 24.844 91.8684 25C91.2964 25.1387 90.6984 25.208 90.0744 25.208ZM82.6904 14.444V11.324H92.3884V14.444H82.6904ZM113.567 10.804C114.677 10.804 115.656 11.0293 116.505 11.48C117.372 11.9133 118.048 12.5893 118.533 13.508C119.036 14.4093 119.287 15.5707 119.287 16.992V25H115.231V17.616C115.231 16.4893 114.997 15.6573 114.529 15.12C114.061 14.5827 113.403 14.314 112.553 14.314C111.964 14.314 111.435 14.4527 110.967 14.73C110.499 14.99 110.135 15.3887 109.875 15.926C109.615 16.4633 109.485 17.148 109.485 17.98V25H105.429V17.616C105.429 16.4893 105.195 15.6573 104.727 15.12C104.277 14.5827 103.627 14.314 102.777 14.314C102.188 14.314 101.659 14.4527 101.191 14.73C100.723 14.99 100.359 15.3887 100.099 15.926C99.8393 16.4633 99.7093 17.148 99.7093 17.98V25H95.6533V11.012H99.5273V14.834L98.7993 13.716C99.2846 12.7627 99.9693 12.0433 100.853 11.558C101.755 11.0553 102.777 10.804 103.921 10.804C105.204 10.804 106.322 11.1333 107.275 11.792C108.246 12.4333 108.887 13.4213 109.199 14.756L107.769 14.366C108.237 13.274 108.983 12.4073 110.005 11.766C111.045 11.1247 112.233 10.804 113.567 10.804ZM129.68 25.208C128.19 25.208 126.864 24.896 125.702 24.272C124.558 23.648 123.648 22.7987 122.972 21.724C122.314 20.632 121.984 19.3927 121.984 18.006C121.984 16.602 122.314 15.3627 122.972 14.288C123.648 13.196 124.558 12.3467 125.702 11.74C126.864 11.116 128.19 10.804 129.68 10.804C131.154 10.804 132.471 11.116 133.632 11.74C134.794 12.3467 135.704 13.1873 136.362 14.262C137.021 15.3367 137.35 16.5847 137.35 18.006C137.35 19.3927 137.021 20.632 136.362 21.724C135.704 22.7987 134.794 23.648 133.632 24.272C132.471 24.896 131.154 25.208 129.68 25.208ZM129.68 21.88C130.356 21.88 130.963 21.724 131.5 21.412C132.038 21.1 132.462 20.658 132.774 20.086C133.086 19.4967 133.242 18.8033 133.242 18.006C133.242 17.1913 133.086 16.498 132.774 15.926C132.462 15.354 132.038 14.912 131.5 14.6C130.963 14.288 130.356 14.132 129.68 14.132C129.004 14.132 128.398 14.288 127.86 14.6C127.323 14.912 126.89 15.354 126.56 15.926C126.248 16.498 126.092 17.1913 126.092 18.006C126.092 18.8033 126.248 19.4967 126.56 20.086C126.89 20.658 127.323 21.1 127.86 21.412C128.398 21.724 129.004 21.88 129.68 21.88ZM140.061 25V5.70801H144.117V25H140.061ZM156.462 25V22.27L156.202 21.672V16.784C156.202 15.9173 155.933 15.2413 155.396 14.756C154.876 14.2707 154.07 14.028 152.978 14.028C152.232 14.028 151.496 14.1493 150.768 14.392C150.057 14.6173 149.45 14.9293 148.948 15.328L147.492 12.494C148.254 11.9567 149.173 11.5407 150.248 11.246C151.322 10.9513 152.414 10.804 153.524 10.804C155.656 10.804 157.311 11.3067 158.49 12.312C159.668 13.3173 160.258 14.886 160.258 17.018V25H156.462ZM152.198 25.208C151.106 25.208 150.17 25.026 149.39 24.662C148.61 24.2807 148.012 23.7693 147.596 23.128C147.18 22.4867 146.972 21.7673 146.972 20.97C146.972 20.138 147.171 19.41 147.57 18.786C147.986 18.162 148.636 17.6767 149.52 17.33C150.404 16.966 151.556 16.784 152.978 16.784H156.696V19.15H153.42C152.466 19.15 151.808 19.306 151.444 19.618C151.097 19.93 150.924 20.32 150.924 20.788C150.924 21.308 151.123 21.724 151.522 22.036C151.938 22.3307 152.501 22.478 153.212 22.478C153.888 22.478 154.494 22.322 155.032 22.01C155.569 21.6807 155.959 21.204 156.202 20.58L156.826 22.452C156.531 23.3533 155.994 24.038 155.214 24.506C154.434 24.974 153.428 25.208 152.198 25.208Z" fill="#D7C8C8"/>
</svg>
