<svg width="151" height="32" viewBox="0 0 151 32" fill="none" xmlns="http://www.w3.org/2000/svg">
<path d="M35.1582 25.0001V6.80009H38.6422L46.3902 19.6441H44.5442L52.1622 6.80009H55.6202L55.6722 25.0001H51.7202L51.6942 12.8581H52.4222L46.3382 23.0761H44.4402L38.2262 12.8581H39.1102V25.0001H35.1582ZM59.7042 25.0001V11.0121H63.7602V25.0001H59.7042ZM61.7322 9.06209C60.9869 9.06209 60.3802 8.84542 59.9122 8.41209C59.4442 7.97876 59.2102 7.44142 59.2102 6.80009C59.2102 6.15876 59.4442 5.62142 59.9122 5.18809C60.3802 4.75476 60.9869 4.53809 61.7322 4.53809C62.4775 4.53809 63.0842 4.74609 63.5522 5.16209C64.0202 5.56076 64.2542 6.08076 64.2542 6.72209C64.2542 7.39809 64.0202 7.96142 63.5522 8.41209C63.1015 8.84542 62.4949 9.06209 61.7322 9.06209ZM76.0265 10.8041C77.1359 10.8041 78.1239 11.0294 78.9905 11.4801C79.8745 11.9134 80.5679 12.5894 81.0705 13.5081C81.5732 14.4094 81.8245 15.5708 81.8245 16.9921V25.0001H77.7685V17.6161C77.7685 16.4894 77.5172 15.6574 77.0145 15.1201C76.5292 14.5828 75.8359 14.3141 74.9345 14.3141C74.2932 14.3141 73.7125 14.4528 73.1925 14.7301C72.6899 14.9901 72.2912 15.3974 71.9965 15.9521C71.7192 16.5068 71.5805 17.2174 71.5805 18.0841V25.0001H67.5245V11.0121H71.3985V14.8861L70.6705 13.7161C71.1732 12.7801 71.8925 12.0608 72.8285 11.5581C73.7645 11.0554 74.8305 10.8041 76.0265 10.8041ZM85.5011 25.0001V11.0121H89.5571V25.0001H85.5011ZM87.5291 9.06209C86.7838 9.06209 86.1771 8.84542 85.7091 8.41209C85.2411 7.97876 85.0071 7.44142 85.0071 6.80009C85.0071 6.15876 85.2411 5.62142 85.7091 5.18809C86.1771 4.75476 86.7838 4.53809 87.5291 4.53809C88.2744 4.53809 88.8811 4.74609 89.3491 5.16209C89.8171 5.56076 90.0511 6.08076 90.0511 6.72209C90.0511 7.39809 89.8171 7.96142 89.3491 8.41209C88.8984 8.84542 88.2918 9.06209 87.5291 9.06209ZM99.9774 25.2081C98.4867 25.2081 97.1607 24.8961 95.9994 24.2721C94.8554 23.6481 93.9454 22.7988 93.2694 21.7241C92.6107 20.6321 92.2814 19.3928 92.2814 18.0061C92.2814 16.6021 92.6107 15.3628 93.2694 14.2881C93.9454 13.1961 94.8554 12.3468 95.9994 11.7401C97.1607 11.1161 98.4867 10.8041 99.9774 10.8041C101.45 10.8041 102.768 11.1161 103.929 11.7401C105.09 12.3468 106 13.1874 106.659 14.2621C107.318 15.3368 107.647 16.5848 107.647 18.0061C107.647 19.3928 107.318 20.6321 106.659 21.7241C106 22.7988 105.09 23.6481 103.929 24.2721C102.768 24.8961 101.45 25.2081 99.9774 25.2081ZM99.9774 21.8801C100.653 21.8801 101.26 21.7241 101.797 21.4121C102.334 21.1001 102.759 20.6581 103.071 20.0861C103.383 19.4968 103.539 18.8034 103.539 18.0061C103.539 17.1914 103.383 16.4981 103.071 15.9261C102.759 15.3541 102.334 14.9121 101.797 14.6001C101.26 14.2881 100.653 14.1321 99.9774 14.1321C99.3014 14.1321 98.6947 14.2881 98.1574 14.6001C97.6201 14.9121 97.1867 15.3541 96.8574 15.9261C96.5454 16.4981 96.3894 17.1914 96.3894 18.0061C96.3894 18.8034 96.5454 19.4968 96.8574 20.0861C97.1867 20.6581 97.6201 21.1001 98.1574 21.4121C98.6947 21.7241 99.3014 21.8801 99.9774 21.8801ZM118.626 25.2081C117.448 25.2081 116.416 24.9481 115.532 24.4281C114.648 23.9081 113.955 23.1194 113.452 22.0621C112.967 20.9874 112.724 19.6354 112.724 18.0061C112.724 16.3594 112.958 15.0074 113.426 13.9501C113.894 12.8928 114.57 12.1041 115.454 11.5841C116.338 11.0641 117.396 10.8041 118.626 10.8041C119.944 10.8041 121.122 11.1074 122.162 11.7141C123.22 12.3034 124.052 13.1354 124.658 14.2101C125.282 15.2848 125.594 16.5501 125.594 18.0061C125.594 19.4794 125.282 20.7534 124.658 21.8281C124.052 22.9028 123.22 23.7348 122.162 24.3241C121.122 24.9134 119.944 25.2081 118.626 25.2081ZM110.358 30.0441V11.0121H114.232V13.8721L114.154 18.0321L114.414 22.1661V30.0441H110.358ZM117.924 21.8801C118.6 21.8801 119.198 21.7241 119.718 21.4121C120.256 21.1001 120.68 20.6581 120.992 20.0861C121.322 19.4968 121.486 18.8034 121.486 18.0061C121.486 17.1914 121.322 16.4981 120.992 15.9261C120.68 15.3541 120.256 14.9121 119.718 14.6001C119.198 14.2881 118.6 14.1321 117.924 14.1321C117.248 14.1321 116.642 14.2881 116.104 14.6001C115.567 14.9121 115.142 15.3541 114.83 15.9261C114.518 16.4981 114.362 17.1914 114.362 18.0061C114.362 18.8034 114.518 19.4968 114.83 20.0861C115.142 20.6581 115.567 21.1001 116.104 21.4121C116.642 21.7241 117.248 21.8801 117.924 21.8801ZM136.661 25.0001V22.2701L136.401 21.6721V16.7841C136.401 15.9174 136.132 15.2414 135.595 14.7561C135.075 14.2708 134.269 14.0281 133.177 14.0281C132.432 14.0281 131.695 14.1494 130.967 14.3921C130.256 14.6174 129.65 14.9294 129.147 15.3281L127.691 12.4941C128.454 11.9568 129.372 11.5408 130.447 11.2461C131.522 10.9514 132.614 10.8041 133.723 10.8041C135.855 10.8041 137.51 11.3068 138.689 12.3121C139.868 13.3174 140.457 14.8861 140.457 17.0181V25.0001H136.661ZM132.397 25.2081C131.305 25.2081 130.369 25.0261 129.589 24.6621C128.809 24.2808 128.211 23.7694 127.795 23.1281C127.379 22.4868 127.171 21.7674 127.171 20.9701C127.171 20.1381 127.37 19.4101 127.769 18.7861C128.185 18.1621 128.835 17.6768 129.719 17.3301C130.603 16.9661 131.756 16.7841 133.177 16.7841H136.895V19.1501H133.619C132.666 19.1501 132.007 19.3061 131.643 19.6181C131.296 19.9301 131.123 20.3201 131.123 20.7881C131.123 21.3081 131.322 21.7241 131.721 22.0361C132.137 22.3308 132.7 22.4781 133.411 22.4781C134.087 22.4781 134.694 22.3221 135.231 22.0101C135.768 21.6808 136.158 21.2041 136.401 20.5801L137.025 22.4521C136.73 23.3534 136.193 24.0381 135.413 24.5061C134.633 24.9741 133.628 25.2081 132.397 25.2081ZM144.128 25.0001V5.70809H148.184V25.0001H144.128Z" fill="#D7C8C8"/>
<path d="M12.7393 31.2307C8.76258 28.8915 4.79353 26.5523 0.786011 24.1896C0.878314 24.1268 0.939852 24.0797 1.00908 24.0404C2.44748 23.1927 3.88587 22.3449 5.32427 21.4893C5.50119 21.3873 5.62426 21.3951 5.79349 21.4972C7.978 22.7923 10.1702 24.0718 12.3547 25.3749C12.7855 25.6339 13.1624 25.6339 13.5931 25.3749C15.7777 24.0797 17.9699 22.7923 20.1544 21.505C20.2928 21.4265 20.4005 21.3637 20.5698 21.4658C22.0543 22.3528 23.5465 23.2241 25.0311 24.1032C25.0619 24.1189 25.0926 24.1503 25.1542 24.1974C21.1543 26.5523 17.1776 28.8915 13.2009 31.2385C13.047 31.2307 12.8932 31.2307 12.7393 31.2307Z" fill="#D7C8C8"/>
<path d="M12.1764 1.76123C12.1764 3.517 12.1687 5.2805 12.1841 7.03626C12.1841 7.25283 12.115 7.36112 11.9384 7.46167C9.74266 8.73015 7.55459 10.0141 5.35884 11.2748C4.95962 11.5069 4.77536 11.8163 4.77536 12.2804C4.78304 14.8251 4.77536 17.362 4.78304 19.9067C4.78304 20.1388 4.72162 20.2625 4.51433 20.3863C3.11704 21.1907 1.71974 22.0028 0.330129 22.8149C0.237999 22.8691 0.145869 22.9155 0.00767555 22.9851C0.00767555 22.8382 0.00767555 22.7376 0.00767555 22.6371C0.00767555 18.2747 0.0153549 13.9201 0 9.55776C0 9.03954 0.199612 8.72241 0.637226 8.46717C4.39917 6.29373 8.14575 4.10483 11.9 1.92366C11.9768 1.87725 12.0536 1.81537 12.1227 1.76123C12.138 1.76123 12.1534 1.76123 12.1764 1.76123Z" fill="#D7C8C8"/>
<path d="M14.2182 1.76123C14.8244 2.12463 15.4305 2.49575 16.0366 2.85142C19.2591 4.73025 22.4893 6.60909 25.7194 8.48019C26.1568 8.72761 26.3333 9.06008 26.3333 9.56265C26.3256 13.9234 26.3256 18.2764 26.3256 22.6372C26.3256 22.7377 26.3256 22.8382 26.3256 22.9851C26.2028 22.9233 26.1261 22.8846 26.0494 22.8459C24.6299 22.0186 23.2105 21.1913 21.7911 20.3718C21.6069 20.2635 21.5456 20.1475 21.5456 19.9388C21.5532 17.4182 21.5379 14.8976 21.5609 12.3693C21.5609 11.8358 21.3614 11.4879 20.9011 11.225C18.7297 9.98017 16.566 8.71215 14.4024 7.45959C14.2259 7.35908 14.1492 7.25083 14.1492 7.03434C14.1568 5.27921 14.1568 3.51636 14.1568 1.76123C14.1799 1.76123 14.2029 1.76123 14.2182 1.76123Z" fill="#D7C8C8"/>
<path d="M12.1821 23.3781C11.647 23.0621 11.1638 22.7693 10.6732 22.4764C9.41697 21.7289 8.16817 20.9737 6.91195 20.2261C6.77815 20.1491 6.68152 20.072 6.68152 19.8793C6.68895 17.8294 6.68895 15.7794 6.68895 13.7218C6.68895 13.6755 6.69638 13.6293 6.70382 13.5522C6.78558 13.5908 6.84505 13.6062 6.90452 13.6447C8.59931 14.6543 10.2941 15.6716 11.9889 16.6888C12.0781 16.7428 12.1747 16.8661 12.1747 16.9585C12.1896 19.0779 12.1821 21.1972 12.1821 23.3781Z" fill="#D7C8C8"/>
<path d="M19.6294 13.5522C19.6368 13.6757 19.6442 13.7684 19.6442 13.861C19.6442 15.8447 19.6442 17.8361 19.6517 19.8198C19.6517 20.0282 19.5922 20.144 19.4137 20.2521C17.7407 21.2478 16.0676 22.2512 14.3946 23.2546C14.3276 23.2932 14.2681 23.3241 14.1715 23.3781C14.164 23.2932 14.1492 23.2237 14.1492 23.1543C14.1492 21.1165 14.1492 19.0865 14.1492 17.0488C14.1492 16.9099 14.164 16.8018 14.3053 16.7169C16.0453 15.6826 17.7778 14.6406 19.5178 13.5986C19.5327 13.5908 19.5624 13.5831 19.6294 13.5522Z" fill="#D7C8C8"/>
<path d="M7.46765 11.9646C7.97062 11.6791 8.45811 11.4086 8.93786 11.138C10.2843 10.3866 11.6307 9.62763 12.9771 8.8837C13.0699 8.8311 13.2402 8.81607 13.333 8.86867C15.1437 9.8681 16.9467 10.8826 18.7573 11.897C18.7883 11.912 18.8192 11.9421 18.8657 11.9797C18.7728 12.0323 18.6954 12.0849 18.6103 12.13C16.877 13.0993 15.1514 14.0687 13.4181 15.0456C13.2402 15.1508 13.1086 15.1508 12.9229 15.0456C11.1896 14.0612 9.44857 13.0918 7.70753 12.1149C7.63789 12.0698 7.56824 12.0248 7.46765 11.9646Z" fill="#D7C8C8"/>
</svg>
