<svg width="106" height="32" viewBox="0 0 106 32" fill="none" xmlns="http://www.w3.org/2000/svg">
<path d="M33.1591 24.9998V6.7998H41.0371C42.6664 6.7998 44.0704 7.06847 45.2491 7.6058C46.4277 8.1258 47.3377 8.8798 47.9791 9.8678C48.6204 10.8558 48.9411 12.0345 48.9411 13.4038C48.9411 14.7558 48.6204 15.9258 47.9791 16.9138C47.3377 17.8845 46.4277 18.6298 45.2491 19.1498C44.0704 19.6698 42.6664 19.9298 41.0371 19.9298H35.4991L37.3711 18.0838V24.9998H33.1591ZM44.7291 24.9998L40.1791 18.3958H44.6771L49.2791 24.9998H44.7291ZM37.3711 18.5518L35.4991 16.5758H40.8031C42.1031 16.5758 43.0737 16.2985 43.7151 15.7438C44.3564 15.1718 44.6771 14.3918 44.6771 13.4038C44.6771 12.3985 44.3564 11.6185 43.7151 11.0638C43.0737 10.5091 42.1031 10.2318 40.8031 10.2318H35.4991L37.3711 8.2298V18.5518ZM58.9342 25.2078C57.3396 25.2078 55.9356 24.8958 54.7222 24.2718C53.5262 23.6478 52.5989 22.7985 51.9402 21.7238C51.2816 20.6318 50.9522 19.3925 50.9522 18.0058C50.9522 16.6018 51.2729 15.3625 51.9142 14.2878C52.5729 13.1958 53.4656 12.3465 54.5922 11.7398C55.7189 11.1158 56.9929 10.8038 58.4142 10.8038C59.7836 10.8038 61.0142 11.0985 62.1062 11.6878C63.2156 12.2598 64.0909 13.0918 64.7322 14.1838C65.3736 15.2585 65.6942 16.5498 65.6942 18.0578C65.6942 18.2138 65.6856 18.3958 65.6682 18.6038C65.6509 18.7945 65.6336 18.9765 65.6162 19.1498H54.2542V16.7838H63.4842L61.9242 17.4858C61.9242 16.7578 61.7769 16.1251 61.4822 15.5878C61.1876 15.0505 60.7802 14.6345 60.2602 14.3398C59.7402 14.0278 59.1336 13.8718 58.4402 13.8718C57.7469 13.8718 57.1316 14.0278 56.5942 14.3398C56.0742 14.6345 55.6669 15.0591 55.3722 15.6138C55.0776 16.1511 54.9302 16.7925 54.9302 17.5378V18.1618C54.9302 18.9245 55.0949 19.6005 55.4242 20.1898C55.7709 20.7618 56.2476 21.2038 56.8542 21.5158C57.4782 21.8105 58.2062 21.9578 59.0382 21.9578C59.7836 21.9578 60.4336 21.8451 60.9882 21.6198C61.5602 21.3945 62.0802 21.0565 62.5482 20.6058L64.7062 22.9458C64.0649 23.6738 63.2589 24.2371 62.2882 24.6358C61.3176 25.0171 60.1996 25.2078 58.9342 25.2078ZM74.1146 25.2078C72.4679 25.2078 71.1852 24.7918 70.2666 23.9598C69.3479 23.1105 68.8886 21.8538 68.8886 20.1898V7.9178H72.9446V20.1378C72.9446 20.7271 73.1006 21.1865 73.4126 21.5158C73.7246 21.8278 74.1492 21.9838 74.6866 21.9838C75.3279 21.9838 75.8739 21.8105 76.3246 21.4638L77.4166 24.3238C77.0006 24.6185 76.4979 24.8438 75.9086 24.9998C75.3366 25.1385 74.7386 25.2078 74.1146 25.2078ZM66.7306 14.4438V11.3238H76.4286V14.4438H66.7306ZM79.6934 24.9998V11.0118H83.5674V14.9638L83.0214 13.8198C83.4374 12.8318 84.1047 12.0865 85.0234 11.5838C85.9421 11.0638 87.0601 10.8038 88.3774 10.8038V14.5478C88.2041 14.5305 88.0481 14.5218 87.9094 14.5218C87.7707 14.5045 87.6234 14.4958 87.4674 14.4958C86.3581 14.4958 85.4567 14.8165 84.7634 15.4578C84.0874 16.0818 83.7494 17.0611 83.7494 18.3958V24.9998H79.6934ZM97.3435 25.2078C95.8529 25.2078 94.5269 24.8958 93.3655 24.2718C92.2215 23.6478 91.3115 22.7985 90.6355 21.7238C89.9769 20.6318 89.6475 19.3925 89.6475 18.0058C89.6475 16.6018 89.9769 15.3625 90.6355 14.2878C91.3115 13.1958 92.2215 12.3465 93.3655 11.7398C94.5269 11.1158 95.8529 10.8038 97.3435 10.8038C98.8169 10.8038 100.134 11.1158 101.295 11.7398C102.457 12.3465 103.367 13.1871 104.025 14.2618C104.684 15.3365 105.013 16.5845 105.013 18.0058C105.013 19.3925 104.684 20.6318 104.025 21.7238C103.367 22.7985 102.457 23.6478 101.295 24.2718C100.134 24.8958 98.8169 25.2078 97.3435 25.2078ZM97.3435 21.8798C98.0195 21.8798 98.6262 21.7238 99.1635 21.4118C99.7009 21.0998 100.125 20.6578 100.437 20.0858C100.749 19.4965 100.905 18.8031 100.905 18.0058C100.905 17.1911 100.749 16.4978 100.437 15.9258C100.125 15.3538 99.7009 14.9118 99.1635 14.5998C98.6262 14.2878 98.0195 14.1318 97.3435 14.1318C96.6675 14.1318 96.0609 14.2878 95.5235 14.5998C94.9862 14.9118 94.5529 15.3538 94.2235 15.9258C93.9115 16.4978 93.7555 17.1911 93.7555 18.0058C93.7555 18.8031 93.9115 19.4965 94.2235 20.0858C94.5529 20.6578 94.9862 21.0998 95.5235 21.4118C96.0609 21.7238 96.6675 21.8798 97.3435 21.8798Z" fill="#D7C8C8"/>
<path d="M7.62155 31C7.15014 30.915 6.671 30.8532 6.20732 30.7295C2.83019 29.8485 0.449961 27.1206 0.0944729 23.6353C-0.0214471 22.5379 0.040375 21.4173 0.024919 20.3044C0.017191 19.8408 0.024919 19.3771 0.024919 18.8979C5.88275 18.8979 11.7174 18.8979 17.5443 18.8979C17.5598 18.9134 17.5675 18.9211 17.5675 18.9289C17.5366 20.8145 17.753 22.7156 17.3589 24.5858C16.6788 27.8392 13.9431 30.4049 10.651 30.8764C10.4114 30.9073 10.1796 30.9536 9.93995 30.9923C9.16715 31 8.39435 31 7.62155 31Z" fill="#D7C8C8"/>
<path d="M20.3728 1.32422C21.0375 1.71835 21.1379 2.02747 20.852 2.7539C20.481 3.69672 20.1101 4.63181 19.7314 5.57462C19.515 6.11558 18.9432 6.32424 18.4795 6.05376C18.1163 5.8451 17.9463 5.40461 18.1008 5.00275C18.5027 3.95174 18.9123 2.90074 19.3605 1.86518C19.4532 1.6488 19.7314 1.50197 19.9169 1.32422C20.0637 1.32422 20.2183 1.32422 20.3728 1.32422Z" fill="#D7C8C8"/>
<path d="M7.95404 5.08792C7.95404 5.68298 7.95404 6.2394 7.95404 6.79581C7.95404 7.44497 7.96177 8.09412 7.94631 8.73554C7.94631 8.83601 7.87676 8.97511 7.79175 9.02148C6.77165 9.56244 6.24615 10.4434 6.1225 11.5485C5.99113 12.7386 6.32343 13.7819 7.25852 14.5934C7.34352 14.6706 7.43626 14.7634 7.54445 14.7943C7.93858 14.9179 7.97722 15.1884 7.96177 15.5516C7.93086 16.0694 7.95404 16.5872 7.95404 17.1282C5.30333 17.1282 2.68354 17.1282 0.0173827 17.1282C0.0173827 17.02 0.0173827 16.9118 0.0173827 16.7958C0.0173827 14.5084 0.0637498 12.2131 0.00192577 9.92565C-0.0676262 7.41405 1.75618 5.61343 3.95093 5.2193C4.66191 5.08792 5.41153 5.11111 6.14569 5.08792C6.73302 5.07247 7.32034 5.08792 7.95404 5.08792Z" fill="#D7C8C8"/>
<path d="M9.69256 17.1283C9.69256 16.4559 9.68484 15.7991 9.70029 15.1422C9.70029 15.0649 9.80076 14.9644 9.87804 14.9258C11.9878 13.7898 12.1346 10.4513 10.1022 9.19935C9.75439 8.98296 9.67711 8.76658 9.68484 8.40336C9.70802 7.31371 9.69256 6.22407 9.69256 5.14214C9.72347 5.11896 9.73893 5.09578 9.75439 5.09578C11.0682 5.11896 12.3819 4.9644 13.6879 5.20397C15.6663 5.56719 17.1424 7.00459 17.5056 8.89023C17.5597 9.15298 17.5751 9.43119 17.5829 9.69394C17.5906 12.0896 17.5829 14.4853 17.5829 16.881C17.5829 16.9583 17.5829 17.0278 17.5829 17.1206C14.9476 17.1283 12.3433 17.1283 9.69256 17.1283Z" fill="#D7C8C8"/>
<path d="M24.0748 6.94219C24.0593 7.24359 23.9125 7.52952 23.5802 7.67635C22.5987 8.14003 21.6096 8.59599 20.6126 9.04421C20.1567 9.24514 19.6698 9.05194 19.4689 8.61917C19.268 8.1864 19.438 7.68408 19.8939 7.47542C20.8677 7.01174 21.8491 6.55579 22.8306 6.1153C23.4334 5.85254 24.0671 6.2544 24.0748 6.94219Z" fill="#D7C8C8"/>
<path d="M25.5348 12.1826C25.5348 12.8627 24.9939 13.3032 24.4452 13.1177C23.3787 12.7545 22.32 12.3604 21.269 11.9585C20.8362 11.7885 20.6507 11.2939 20.813 10.8689C20.9753 10.4284 21.439 10.1965 21.8949 10.3511C22.9305 10.7143 23.9583 11.093 24.9861 11.4794C25.3494 11.6185 25.5271 11.9044 25.5348 12.1826Z" fill="#D7C8C8"/>
<path d="M7.83887 11.9814C7.83887 11.5718 7.9316 11.2008 8.18663 10.8763C8.54212 10.4358 9.05217 10.428 9.42311 10.8531C9.92543 11.4327 9.9177 12.561 9.41538 13.1328C9.05217 13.5424 8.54985 13.5424 8.19436 13.1097C7.93161 12.7851 7.83887 12.3987 7.83887 11.9814Z" fill="#D7C8C8"/>
</svg>
