<svg width="160" height="32" viewBox="0 0 160 32" fill="none" xmlns="http://www.w3.org/2000/svg">
<g clip-path="url(#clip0_107_1649)">
<path d="M42.1375 25.3118C40.6815 25.3118 39.2861 25.1211 37.9515 24.7398C36.6168 24.3411 35.5421 23.8298 34.7275 23.2058L36.1575 20.0338C36.9375 20.5885 37.8561 21.0478 38.9135 21.4118C39.9881 21.7585 41.0715 21.9318 42.1635 21.9318C42.9955 21.9318 43.6628 21.8538 44.1655 21.6978C44.6855 21.5245 45.0668 21.2905 45.3095 20.9958C45.5521 20.7011 45.6735 20.3631 45.6735 19.9818C45.6735 19.4965 45.4828 19.1151 45.1015 18.8378C44.7201 18.5431 44.2175 18.3091 43.5935 18.1358C42.9695 17.9451 42.2761 17.7718 41.5135 17.6158C40.7681 17.4425 40.0141 17.2345 39.2515 16.9918C38.5061 16.7491 37.8215 16.4371 37.1975 16.0558C36.5735 15.6745 36.0621 15.1718 35.6635 14.5478C35.2821 13.9238 35.0915 13.1265 35.0915 12.1558C35.0915 11.1158 35.3688 10.1711 35.9235 9.32179C36.4955 8.45512 37.3448 7.77046 38.4715 7.26779C39.6155 6.74779 41.0455 6.48779 42.7615 6.48779C43.9055 6.48779 45.0321 6.62646 46.1415 6.90379C47.2508 7.16379 48.2301 7.56246 49.0795 8.09979L47.7795 11.2978C46.9301 10.8125 46.0808 10.4571 45.2315 10.2318C44.3821 9.98912 43.5501 9.86779 42.7355 9.86779C41.9208 9.86779 41.2535 9.96312 40.7335 10.1538C40.2135 10.3445 39.8408 10.5958 39.6155 10.9078C39.3901 11.2025 39.2775 11.5491 39.2775 11.9478C39.2775 12.4158 39.4681 12.7971 39.8495 13.0918C40.2308 13.3691 40.7335 13.5945 41.3575 13.7678C41.9815 13.9411 42.6661 14.1145 43.4115 14.2878C44.1741 14.4611 44.9281 14.6605 45.6735 14.8858C46.4361 15.1111 47.1295 15.4145 47.7535 15.7958C48.3775 16.1771 48.8801 16.6798 49.2615 17.3038C49.6601 17.9278 49.8595 18.7165 49.8595 19.6698C49.8595 20.6925 49.5735 21.6285 49.0015 22.4778C48.4295 23.3271 47.5715 24.0118 46.4275 24.5318C45.3008 25.0518 43.8708 25.3118 42.1375 25.3118ZM59.3935 25.2078C57.7989 25.2078 56.3949 24.8958 55.1815 24.2718C53.9855 23.6478 53.0582 22.7985 52.3995 21.7238C51.7409 20.6318 51.4115 19.3925 51.4115 18.0058C51.4115 16.6018 51.7322 15.3625 52.3735 14.2878C53.0322 13.1958 53.9249 12.3465 55.0515 11.7398C56.1782 11.1158 57.4522 10.8038 58.8735 10.8038C60.2429 10.8038 61.4735 11.0985 62.5655 11.6878C63.6749 12.2598 64.5502 13.0918 65.1915 14.1838C65.8329 15.2585 66.1535 16.5498 66.1535 18.0578C66.1535 18.2138 66.1449 18.3958 66.1275 18.6038C66.1102 18.7945 66.0929 18.9765 66.0755 19.1498H54.7135V16.7838H63.9435L62.3835 17.4858C62.3835 16.7578 62.2362 16.1251 61.9415 15.5878C61.6469 15.0505 61.2395 14.6345 60.7195 14.3398C60.1995 14.0278 59.5929 13.8718 58.8995 13.8718C58.2062 13.8718 57.5909 14.0278 57.0535 14.3398C56.5335 14.6345 56.1262 15.0591 55.8315 15.6138C55.5369 16.1511 55.3895 16.7925 55.3895 17.5378V18.1618C55.3895 18.9245 55.5542 19.6005 55.8835 20.1898C56.2302 20.7618 56.7069 21.2038 57.3135 21.5158C57.9375 21.8105 58.6655 21.9578 59.4975 21.9578C60.2429 21.9578 60.8929 21.8451 61.4475 21.6198C62.0195 21.3945 62.5395 21.0565 63.0075 20.6058L65.1655 22.9458C64.5242 23.6738 63.7182 24.2371 62.7475 24.6358C61.7769 25.0171 60.6589 25.2078 59.3935 25.2078ZM75.6139 25.2078C74.1059 25.2078 72.7625 24.9045 71.5839 24.2978C70.4052 23.6738 69.4779 22.8158 68.8019 21.7238C68.1432 20.6318 67.8139 19.3925 67.8139 18.0058C67.8139 16.6018 68.1432 15.3625 68.8019 14.2878C69.4779 13.1958 70.4052 12.3465 71.5839 11.7398C72.7625 11.1158 74.1059 10.8038 75.6139 10.8038C77.0872 10.8038 78.3699 11.1158 79.4619 11.7398C80.5539 12.3465 81.3599 13.2218 81.8799 14.3658L78.7339 16.0558C78.3699 15.3971 77.9105 14.9118 77.3559 14.5998C76.8185 14.2878 76.2292 14.1318 75.5879 14.1318C74.8945 14.1318 74.2705 14.2878 73.7159 14.5998C73.1612 14.9118 72.7192 15.3538 72.3899 15.9258C72.0779 16.4978 71.9219 17.1911 71.9219 18.0058C71.9219 18.8205 72.0779 19.5138 72.3899 20.0858C72.7192 20.6578 73.1612 21.0998 73.7159 21.4118C74.2705 21.7238 74.8945 21.8798 75.5879 21.8798C76.2292 21.8798 76.8185 21.7325 77.3559 21.4378C77.9105 21.1258 78.3699 20.6318 78.7339 19.9558L81.8799 21.6718C81.3599 22.7985 80.5539 23.6738 79.4619 24.2978C78.3699 24.9045 77.0872 25.2078 75.6139 25.2078ZM90.1172 25.2078C88.9559 25.2078 87.9159 24.9825 86.9972 24.5318C86.0959 24.0811 85.3939 23.3965 84.8912 22.4778C84.3885 21.5418 84.1372 20.3545 84.1372 18.9158V11.0118H88.1932V18.3178C88.1932 19.4791 88.4359 20.3371 88.9212 20.8918C89.4239 21.4291 90.1259 21.6978 91.0272 21.6978C91.6512 21.6978 92.2059 21.5678 92.6912 21.3078C93.1765 21.0305 93.5579 20.6145 93.8352 20.0598C94.1125 19.4878 94.2512 18.7771 94.2512 17.9278V11.0118H98.3072V24.9998H94.4592V21.1518L95.1612 22.2698C94.6932 23.2405 93.9999 23.9771 93.0812 24.4798C92.1799 24.9651 91.1919 25.2078 90.1172 25.2078ZM102.065 24.9998V11.0118H105.939V14.9638L105.393 13.8198C105.809 12.8318 106.476 12.0865 107.395 11.5838C108.314 11.0638 109.432 10.8038 110.749 10.8038V14.5478C110.576 14.5305 110.42 14.5218 110.281 14.5218C110.142 14.5045 109.995 14.4958 109.839 14.4958C108.73 14.4958 107.828 14.8165 107.135 15.4578C106.459 16.0818 106.121 17.0611 106.121 18.3958V24.9998H102.065ZM120.001 25.2078C118.407 25.2078 117.003 24.8958 115.789 24.2718C114.593 23.6478 113.666 22.7985 113.007 21.7238C112.349 20.6318 112.019 19.3925 112.019 18.0058C112.019 16.6018 112.34 15.3625 112.981 14.2878C113.64 13.1958 114.533 12.3465 115.659 11.7398C116.786 11.1158 118.06 10.8038 119.481 10.8038C120.851 10.8038 122.081 11.0985 123.173 11.6878C124.283 12.2598 125.158 13.0918 125.799 14.1838C126.441 15.2585 126.761 16.5498 126.761 18.0578C126.761 18.2138 126.753 18.3958 126.735 18.6038C126.718 18.7945 126.701 18.9765 126.683 19.1498H115.321V16.7838H124.551L122.991 17.4858C122.991 16.7578 122.844 16.1251 122.549 15.5878C122.255 15.0505 121.847 14.6345 121.327 14.3398C120.807 14.0278 120.201 13.8718 119.507 13.8718C118.814 13.8718 118.199 14.0278 117.661 14.3398C117.141 14.6345 116.734 15.0591 116.439 15.6138C116.145 16.1511 115.997 16.7925 115.997 17.5378V18.1618C115.997 18.9245 116.162 19.6005 116.491 20.1898C116.838 20.7618 117.315 21.2038 117.921 21.5158C118.545 21.8105 119.273 21.9578 120.105 21.9578C120.851 21.9578 121.501 21.8451 122.055 21.6198C122.627 21.3945 123.147 21.0565 123.615 20.6058L125.773 22.9458C125.132 23.6738 124.326 24.2371 123.355 24.6358C122.385 25.0171 121.267 25.2078 120.001 25.2078ZM137.111 24.9998V6.79979H141.323V24.9998H137.111ZM149.412 24.9998V10.2318H143.588V6.79979H159.448V10.2318H153.624V24.9998H149.412Z" fill="#D7C8C8"/>
<path d="M13.2307 31.5684C13.034 31.5684 12.8315 31.5684 12.6349 31.5684C12.468 31.5147 12.2953 31.4729 12.1284 31.4132C10.4781 30.828 8.89925 30.0875 7.4336 29.1201C5.24705 27.675 3.50137 25.8238 2.25617 23.5068C0.856058 20.8972 0.236435 18.0727 0.0815287 15.1466C-0.0316718 12.9013 0.00407684 10.65 0.0100347 8.40474C0.0159927 6.67895 1.21353 5.37118 2.93537 5.16218C3.57287 5.08455 4.22229 5.03678 4.85382 4.93526C7.23699 4.55905 9.34014 3.57971 11.1275 1.94948C11.5624 1.55535 12.0033 1.17915 12.5753 1C12.8136 1 13.0519 1 13.2902 1C13.9397 1.19109 14.4103 1.64493 14.8929 2.08682C14.8989 2.0928 14.9048 2.09877 14.9167 2.10474C16.2632 3.27516 17.7944 4.10521 19.5103 4.60085C20.6602 4.93526 21.8458 5.04872 23.0255 5.17412C24.5507 5.32938 25.8138 6.6909 25.8614 8.22559C25.9389 10.7516 25.9985 13.2775 25.7482 15.8035C25.5755 17.5412 25.2835 19.2491 24.7294 20.9092C23.6213 24.2115 21.6671 26.8807 18.8013 28.8693C17.0854 30.0516 15.2206 30.9474 13.2307 31.5684ZM20.5351 16.2753C20.5112 12.0713 17.1033 8.66151 12.9328 8.66151C8.75626 8.66151 5.34833 12.0772 5.33046 16.2753C5.31258 20.4553 8.79797 23.9427 12.9506 23.9009C17.1569 23.8591 20.5589 20.4434 20.5351 16.2753Z" fill="#D7C8C8"/>
<path d="M18.8316 16.3244C18.7955 19.7006 16.1176 22.3374 12.9223 22.2881C9.63662 22.2327 7.05507 19.5281 7.09719 16.2628C7.14533 12.9175 9.7991 10.2252 12.9945 10.2806C16.2681 10.3361 18.8978 13.0653 18.8316 16.3244ZM11.5863 17.5258C11.2794 17.1993 11.0026 16.8851 10.7138 16.5893C10.2745 16.1458 9.73893 16.115 9.3538 16.5154C8.9807 16.8974 9.01681 17.4642 9.44406 17.9078C9.9014 18.3821 10.3648 18.8504 10.8281 19.3248C11.3697 19.8792 11.8391 19.8792 12.3807 19.3248C13.6925 17.9817 15.0044 16.6386 16.3102 15.2956C16.3884 15.2155 16.4666 15.1354 16.5328 15.0491C16.8999 14.5378 16.6712 13.8231 16.0755 13.626C15.6723 13.4966 15.3594 13.6506 15.0766 13.9402C13.9332 15.1169 12.7899 16.2936 11.5863 17.5258Z" fill="#D7C8C8"/>
</g>
<defs>
<clipPath id="clip0_107_1649">
<rect width="160" height="32" fill="white"/>
</clipPath>
</defs>
</svg>
