<svg width="137" height="33" viewBox="0 0 137 33" fill="none" xmlns="http://www.w3.org/2000/svg">
<path d="M42.9275 25V10.232H37.1035V6.80001H52.9635V10.232H47.1395V25H42.9275ZM60.4639 25.208C58.8692 25.208 57.4652 24.896 56.2519 24.272C55.0559 23.648 54.1286 22.7987 53.4699 21.724C52.8112 20.632 52.4819 19.3927 52.4819 18.006C52.4819 16.602 52.8026 15.3627 53.4439 14.288C54.1026 13.196 54.9952 12.3467 56.1219 11.74C57.2486 11.116 58.5226 10.804 59.9439 10.804C61.3132 10.804 62.5439 11.0987 63.6359 11.688C64.7452 12.26 65.6206 13.092 66.2619 14.184C66.9032 15.2587 67.2239 16.55 67.2239 18.058C67.2239 18.214 67.2152 18.396 67.1979 18.604C67.1806 18.7947 67.1632 18.9767 67.1459 19.15H55.7839V16.784H65.0139L63.4539 17.486C63.4539 16.758 63.3066 16.1253 63.0119 15.588C62.7172 15.0507 62.3099 14.6347 61.7899 14.34C61.2699 14.028 60.6632 13.872 59.9699 13.872C59.2766 13.872 58.6612 14.028 58.1239 14.34C57.6039 14.6347 57.1966 15.0593 56.9019 15.614C56.6072 16.1513 56.4599 16.7927 56.4599 17.538V18.162C56.4599 18.9247 56.6246 19.6007 56.9539 20.19C57.3006 20.762 57.7772 21.204 58.3839 21.516C59.0079 21.8107 59.7359 21.958 60.5679 21.958C61.3132 21.958 61.9632 21.8453 62.5179 21.62C63.0899 21.3947 63.6099 21.0567 64.0779 20.606L66.2359 22.946C65.5946 23.674 64.7886 24.2373 63.8179 24.636C62.8472 25.0173 61.7292 25.208 60.4639 25.208ZM76.6842 25.208C75.1762 25.208 73.8329 24.9047 72.6542 24.298C71.4756 23.674 70.5482 22.816 69.8722 21.724C69.2136 20.632 68.8842 19.3927 68.8842 18.006C68.8842 16.602 69.2136 15.3627 69.8722 14.288C70.5482 13.196 71.4756 12.3467 72.6542 11.74C73.8329 11.116 75.1762 10.804 76.6842 10.804C78.1576 10.804 79.4402 11.116 80.5322 11.74C81.6242 12.3467 82.4302 13.222 82.9502 14.366L79.8042 16.056C79.4402 15.3973 78.9809 14.912 78.4262 14.6C77.8889 14.288 77.2996 14.132 76.6582 14.132C75.9649 14.132 75.3409 14.288 74.7862 14.6C74.2316 14.912 73.7896 15.354 73.4602 15.926C73.1482 16.498 72.9922 17.1913 72.9922 18.006C72.9922 18.8207 73.1482 19.514 73.4602 20.086C73.7896 20.658 74.2316 21.1 74.7862 21.412C75.3409 21.724 75.9649 21.88 76.6582 21.88C77.2996 21.88 77.8889 21.7327 78.4262 21.438C78.9809 21.126 79.4402 20.632 79.8042 19.956L82.9502 21.672C82.4302 22.7987 81.6242 23.674 80.5322 24.298C79.4402 24.9047 78.1576 25.208 76.6842 25.208ZM93.7114 10.804C94.8207 10.804 95.8087 11.0293 96.6754 11.48C97.5594 11.9133 98.2527 12.5893 98.7554 13.508C99.2581 14.4093 99.5094 15.5707 99.5094 16.992V25H95.4534V17.616C95.4534 16.4893 95.2021 15.6573 94.6994 15.12C94.2141 14.5827 93.5207 14.314 92.6194 14.314C91.9781 14.314 91.3974 14.4527 90.8774 14.73C90.3747 14.99 89.9761 15.3973 89.6814 15.952C89.4041 16.5067 89.2654 17.2173 89.2654 18.084V25H85.2094V5.70801H89.2654V14.886L88.3554 13.716C88.8581 12.78 89.5774 12.0607 90.5134 11.558C91.4494 11.0553 92.5154 10.804 93.7114 10.804ZM111.688 10.804C112.798 10.804 113.786 11.0293 114.652 11.48C115.536 11.9133 116.23 12.5893 116.732 13.508C117.235 14.4093 117.486 15.5707 117.486 16.992V25H113.43V17.616C113.43 16.4893 113.179 15.6573 112.676 15.12C112.191 14.5827 111.498 14.314 110.596 14.314C109.955 14.314 109.374 14.4527 108.854 14.73C108.352 14.99 107.953 15.3973 107.658 15.952C107.381 16.5067 107.242 17.2173 107.242 18.084V25H103.186V11.012H107.06V14.886L106.332 13.716C106.835 12.78 107.554 12.0607 108.49 11.558C109.426 11.0553 110.492 10.804 111.688 10.804ZM127.921 25.208C126.43 25.208 125.104 24.896 123.943 24.272C122.799 23.648 121.889 22.7987 121.213 21.724C120.554 20.632 120.225 19.3927 120.225 18.006C120.225 16.602 120.554 15.3627 121.213 14.288C121.889 13.196 122.799 12.3467 123.943 11.74C125.104 11.116 126.43 10.804 127.921 10.804C129.394 10.804 130.711 11.116 131.873 11.74C133.034 12.3467 133.944 13.1873 134.603 14.262C135.261 15.3367 135.591 16.5847 135.591 18.006C135.591 19.3927 135.261 20.632 134.603 21.724C133.944 22.7987 133.034 23.648 131.873 24.272C130.711 24.896 129.394 25.208 127.921 25.208ZM127.921 21.88C128.597 21.88 129.203 21.724 129.741 21.412C130.278 21.1 130.703 20.658 131.015 20.086C131.327 19.4967 131.483 18.8033 131.483 18.006C131.483 17.1913 131.327 16.498 131.015 15.926C130.703 15.354 130.278 14.912 129.741 14.6C129.203 14.288 128.597 14.132 127.921 14.132C127.245 14.132 126.638 14.288 126.101 14.6C125.563 14.912 125.13 15.354 124.801 15.926C124.489 16.498 124.333 17.1913 124.333 18.006C124.333 18.8033 124.489 19.4967 124.801 20.086C125.13 20.658 125.563 21.1 126.101 21.412C126.638 21.724 127.245 21.88 127.921 21.88Z" fill="#D7C8C8"/>
<path d="M15.8647 32.0201C15.6452 32.0201 15.4182 32.0201 15.1988 32.0201C14.2377 31.7022 13.8896 31.006 13.9425 30.0374C13.9652 29.6817 13.9425 29.3184 13.9425 28.9476C12.8982 28.9476 11.8841 28.9476 10.8322 28.9476C10.8322 29.5076 10.8474 30.0525 10.8322 30.5898C10.8171 31.1195 10.5901 31.5433 10.1209 31.8082C9.96951 31.899 9.78789 31.952 9.62897 32.0201C9.42464 32.0201 9.22789 32.0201 9.02356 32.0201C8.00193 31.5963 7.75219 31.2179 7.75219 30.0903C7.75219 29.712 7.75219 29.3336 7.75219 28.9249C7.22246 28.9249 6.73056 28.9325 6.23866 28.9249C5.25487 28.9098 4.44513 28.5314 3.80945 27.7671C3.31755 27.1768 3.09809 26.4957 3.09809 25.7314C3.09809 25.2546 3.09809 24.7703 3.09809 24.2708C2.54565 24.2708 2.03105 24.286 1.51645 24.2708C0.381306 24.2254 -0.330052 23.06 0.154277 22.0232C0.404009 21.4859 0.842932 21.2135 1.42564 21.1908C1.97808 21.1681 2.53052 21.1832 3.08296 21.1832C3.08296 20.1238 3.08296 19.1097 3.08296 18.0502C2.50025 18.0502 1.93267 18.0881 1.37267 18.0426C0.585631 17.9821 0.00292193 17.2935 0.0104896 16.4988C0.0180572 15.6664 0.540227 15.0761 1.3651 15.008C1.80402 14.9702 2.25051 14.9853 2.697 14.9778C2.82565 14.9778 2.95431 14.9778 3.08296 14.9778C3.08296 13.9258 3.08296 12.9118 3.08296 11.875C2.56079 11.875 2.05376 11.8902 1.55429 11.875C0.373739 11.8447 -0.345188 10.6339 0.192115 9.57441C0.472118 9.01441 0.964015 8.80251 1.55429 8.78738C2.06132 8.77981 2.57592 8.78738 3.10566 8.78738C3.10566 8.25764 3.09052 7.76575 3.10566 7.27385C3.1435 6.03275 3.7035 5.10193 4.79324 4.49652C5.27757 4.23165 5.79217 4.13327 6.33704 4.13327C6.80624 4.13327 7.27543 4.13327 7.76733 4.13327C7.76733 3.55813 7.74463 3.02083 7.7749 2.49109C7.8203 1.54514 8.55436 0.939725 9.49275 1.05324C10.2495 1.14405 10.8247 1.75703 10.8474 2.52137C10.8625 3.0511 10.8474 3.58084 10.8474 4.11057C11.9068 4.11057 12.9209 4.11057 13.9804 4.11057C13.9804 3.52786 13.9425 2.96029 13.9879 2.40028C14.0787 1.30297 15.229 0.697561 16.2053 1.21216C16.8182 1.53 17.0604 2.06731 17.0604 2.73326C17.0604 3.19489 17.0604 3.64895 17.0604 4.11057C18.1199 4.11057 19.1264 4.11057 20.1631 4.11057C20.1631 3.5657 20.148 3.04353 20.1631 2.52137C20.201 1.4846 21.2302 0.79594 22.2064 1.13649C22.8269 1.34838 23.2356 1.92352 23.2507 2.61975C23.2583 3.11921 23.2507 3.61867 23.2507 4.14084C23.7729 4.14084 24.2572 4.13327 24.7416 4.14084C26.5351 4.16354 27.8821 5.51815 27.9048 7.31169C27.9124 7.72791 27.9048 8.13656 27.9048 8.55278C27.9048 8.62846 27.92 8.70413 27.9275 8.79495C28.4421 8.79495 28.934 8.78738 29.4259 8.79495C30.0011 8.80251 30.4551 9.05225 30.7578 9.54414C30.8562 9.70306 30.9168 9.89225 30.9924 10.0588C30.9924 10.2631 30.9924 10.4599 30.9924 10.6642C30.8411 10.9366 30.7351 11.2318 30.5384 11.4664C30.2584 11.7993 29.8422 11.8902 29.4184 11.8826C28.9189 11.8826 28.4194 11.8826 27.92 11.8826C27.92 12.9345 27.92 13.9486 27.92 14.9853C28.3892 14.9853 28.8432 14.9853 29.2897 14.9853C29.7362 14.9853 30.1751 15.061 30.4778 15.4091C30.6897 15.6513 30.8259 15.9615 30.9924 16.2415C30.9924 16.461 30.9924 16.688 30.9924 16.9075C30.9622 16.968 30.9319 17.0286 30.9092 17.0891C30.7049 17.6718 30.2962 17.9972 29.6908 18.0654C29.4335 18.0956 29.1686 18.0956 28.9113 18.0956C28.5859 18.1032 28.2529 18.0956 27.92 18.0956C27.92 19.1475 27.92 20.1616 27.92 21.1984C28.0486 21.1984 28.1546 21.1984 28.2681 21.1984C28.6692 21.1984 29.0703 21.1908 29.4789 21.2059C30.3113 21.2362 30.7578 21.7357 31 22.4773C31 22.6816 31 22.8784 31 23.0827C30.72 24.0362 30.0389 24.3541 29.1081 24.2935C28.7221 24.2708 28.3286 24.2935 27.9048 24.2935C27.9048 24.8157 27.9124 25.3 27.9048 25.7919C27.8821 27.4568 26.7091 28.7584 25.0594 28.9249C24.5826 28.9703 24.0907 28.9401 23.6064 28.9476C23.4929 28.9476 23.3794 28.9476 23.2507 28.9476C23.2507 29.4925 23.2583 29.9844 23.2507 30.4763C23.2432 31.0514 22.9934 31.5055 22.5015 31.8082C22.3426 31.9066 22.161 31.9671 21.9869 32.0428C21.7826 32.0428 21.5859 32.0428 21.3815 32.0428C20.4204 31.7023 20.0799 30.9909 20.1556 30.0147C20.1858 29.6666 20.1631 29.3184 20.1631 28.9703C19.1112 28.9703 18.0972 28.9703 17.0301 28.9703C17.0301 29.5757 17.0604 30.1585 17.0226 30.7412C16.9847 31.3541 16.629 31.7552 16.0539 31.9595C15.9858 31.9595 15.9252 31.9898 15.8647 32.0201ZM24.8021 25.8146C24.8021 25.6784 24.8021 25.5649 24.8021 25.4589C24.8021 19.4956 24.8021 13.5323 24.8097 7.56899C24.8097 7.29655 24.7491 7.21331 24.4616 7.21331C18.4907 7.22087 12.5122 7.22087 6.54137 7.21331C6.2538 7.21331 6.19326 7.29655 6.19326 7.56899C6.20083 13.5323 6.20082 19.4956 6.20082 25.4589C6.20082 25.5725 6.20839 25.6935 6.21596 25.8146C12.4214 25.8146 18.5815 25.8146 24.8021 25.8146Z" fill="#D7C8C8"/>
<path d="M9.31934 22.6966C9.31934 18.5722 9.31934 14.4706 9.31934 10.3462C13.4362 10.3462 17.5454 10.3462 21.6698 10.3462C21.6698 14.4554 21.6698 18.5647 21.6698 22.6966C17.5605 22.6966 13.4589 22.6966 9.31934 22.6966Z" fill="#D7C8C8"/>
</svg>
