<svg width="170" height="32" viewBox="0 0 170 32" fill="none" xmlns="http://www.w3.org/2000/svg">
<path d="M44.5263 25L38.5723 6.80001H42.9403L48.1143 22.92H45.9303L51.3383 6.80001H55.2383L60.4383 22.92H58.3323L63.6363 6.80001H67.6663L61.7123 25H57.1883L52.5863 10.856H53.7823L49.0503 25H44.5263ZM75.6327 25.208C74.038 25.208 72.634 24.896 71.4207 24.272C70.2247 23.648 69.2973 22.7987 68.6387 21.724C67.98 20.632 67.6507 19.3927 67.6507 18.006C67.6507 16.602 67.9713 15.3627 68.6127 14.288C69.2713 13.196 70.164 12.3467 71.2907 11.74C72.4173 11.116 73.6913 10.804 75.1127 10.804C76.482 10.804 77.7127 11.0987 78.8047 11.688C79.914 12.26 80.7893 13.092 81.4307 14.184C82.072 15.2587 82.3927 16.55 82.3927 18.058C82.3927 18.214 82.384 18.396 82.3667 18.604C82.3493 18.7947 82.332 18.9767 82.3147 19.15H70.9527V16.784H80.1827L78.6227 17.486C78.6227 16.758 78.4753 16.1253 78.1807 15.588C77.886 15.0507 77.4787 14.6347 76.9587 14.34C76.4387 14.028 75.832 13.872 75.1387 13.872C74.4453 13.872 73.83 14.028 73.2927 14.34C72.7727 14.6347 72.3653 15.0593 72.0707 15.614C71.776 16.1513 71.6287 16.7927 71.6287 17.538V18.162C71.6287 18.9247 71.7933 19.6007 72.1227 20.19C72.4693 20.762 72.946 21.204 73.5527 21.516C74.1767 21.8107 74.9047 21.958 75.7367 21.958C76.482 21.958 77.132 21.8453 77.6867 21.62C78.2587 21.3947 78.7787 21.0567 79.2467 20.606L81.4047 22.946C80.7633 23.674 79.9573 24.2373 78.9867 24.636C78.016 25.0173 76.898 25.208 75.6327 25.208ZM93.361 25.208C92.1303 25.208 91.073 24.948 90.189 24.428C89.305 23.908 88.629 23.1193 88.161 22.062C87.693 20.9873 87.459 19.6353 87.459 18.006C87.459 16.3593 87.7017 15.0073 88.187 13.95C88.6897 12.8927 89.383 12.104 90.267 11.584C91.151 11.064 92.1823 10.804 93.361 10.804C94.6783 10.804 95.857 11.0987 96.897 11.688C97.9543 12.2773 98.7863 13.1093 99.393 14.184C100.017 15.2587 100.329 16.5327 100.329 18.006C100.329 19.462 100.017 20.7273 99.393 21.802C98.7863 22.8767 97.9543 23.7173 96.897 24.324C95.857 24.9133 94.6783 25.208 93.361 25.208ZM85.093 25V5.70801H89.149V13.846L88.889 17.98L88.967 22.14V25H85.093ZM92.659 21.88C93.335 21.88 93.933 21.724 94.453 21.412C94.9903 21.1 95.415 20.658 95.727 20.086C96.0563 19.4967 96.221 18.8033 96.221 18.006C96.221 17.1913 96.0563 16.498 95.727 15.926C95.415 15.354 94.9903 14.912 94.453 14.6C93.933 14.288 93.335 14.132 92.659 14.132C91.983 14.132 91.3763 14.288 90.839 14.6C90.3017 14.912 89.877 15.354 89.565 15.926C89.253 16.498 89.097 17.1913 89.097 18.006C89.097 18.8033 89.253 19.4967 89.565 20.086C89.877 20.658 90.3017 21.1 90.839 21.412C91.3763 21.724 91.983 21.88 92.659 21.88ZM106.398 22.14L106.502 17.2L113.028 11.012H117.864L111.598 17.382L109.492 19.098L106.398 22.14ZM103.044 25V5.70801H107.1V25H103.044ZM113.47 25L108.738 19.124L111.286 15.978L118.384 25H113.47ZM120.208 25V5.70801H124.264V25H120.208ZM128.028 25V11.012H131.902V14.964L131.356 13.82C131.772 12.832 132.44 12.0867 133.358 11.584C134.277 11.064 135.395 10.804 136.712 10.804V14.548C136.539 14.5307 136.383 14.522 136.244 14.522C136.106 14.5047 135.958 14.496 135.802 14.496C134.693 14.496 133.792 14.8167 133.098 15.458C132.422 16.082 132.084 17.0613 132.084 18.396V25H128.028ZM146.79 25V22.27L146.53 21.672V16.784C146.53 15.9173 146.261 15.2413 145.724 14.756C145.204 14.2707 144.398 14.028 143.306 14.028C142.561 14.028 141.824 14.1493 141.096 14.392C140.385 14.6173 139.779 14.9293 139.276 15.328L137.82 12.494C138.583 11.9567 139.501 11.5407 140.576 11.246C141.651 10.9513 142.743 10.804 143.852 10.804C145.984 10.804 147.639 11.3067 148.818 12.312C149.997 13.3173 150.586 14.886 150.586 17.018V25H146.79ZM142.526 25.208C141.434 25.208 140.498 25.026 139.718 24.662C138.938 24.2807 138.34 23.7693 137.924 23.128C137.508 22.4867 137.3 21.7673 137.3 20.97C137.3 20.138 137.499 19.41 137.898 18.786C138.314 18.162 138.964 17.6767 139.848 17.33C140.732 16.966 141.885 16.784 143.306 16.784H147.024V19.15H143.748C142.795 19.15 142.136 19.306 141.772 19.618C141.425 19.93 141.252 20.32 141.252 20.788C141.252 21.308 141.451 21.724 141.85 22.036C142.266 22.3307 142.829 22.478 143.54 22.478C144.216 22.478 144.823 22.322 145.36 22.01C145.897 21.6807 146.287 21.204 146.53 20.58L147.154 22.452C146.859 23.3533 146.322 24.038 145.542 24.506C144.762 24.974 143.757 25.208 142.526 25.208ZM157.611 22.14L157.715 17.2L164.241 11.012H169.077L162.811 17.382L160.705 19.098L157.611 22.14ZM154.257 25V5.70801H158.313V25H154.257ZM164.683 25L159.951 19.124L162.499 15.978L169.597 25H164.683Z" fill="#D7C8C8"/>
<path d="M14.7736 1C15.26 1 15.7463 1 16.2327 1C16.9865 1.10498 17.7404 1.16958 18.4862 1.30685C22.3933 2.04168 25.5871 3.95546 27.9379 7.16932C30.24 10.3266 31.2127 13.8797 30.9614 17.7718C30.7912 20.38 30.0211 22.7945 28.6025 24.9909C26.6571 28.0109 23.8929 29.9893 20.537 31.2006C20.4803 31.2167 20.4235 31.2167 20.3506 31.2248C20.3425 31.136 20.3344 31.0714 20.3344 30.9987C20.3344 27.9948 20.3344 24.9828 20.3425 21.9789C20.3425 21.8578 20.4073 21.7043 20.4965 21.6155C21.2828 20.8161 22.0853 20.0247 22.8716 19.2334C22.985 19.1123 23.0823 19.1042 23.2363 19.1526C23.5444 19.2495 23.8605 19.3384 24.1766 19.3545C25.4331 19.4272 26.6003 18.6278 27.0219 17.4488C27.4353 16.2618 27.0138 14.9375 25.9843 14.1946C24.9629 13.4598 23.5768 13.4759 22.5878 14.235C21.5665 15.0102 21.1774 16.3668 21.6475 17.5376C21.7205 17.7234 21.7043 17.8364 21.5584 17.9818C20.6829 18.8377 19.8318 19.7098 18.9482 20.5658C18.6321 20.8726 18.5024 21.2118 18.5024 21.6397C18.5105 24.8778 18.5105 28.1159 18.5105 31.354C18.5105 31.4832 18.5105 31.6124 18.5105 31.7416C17.9268 31.8304 17.3919 31.9112 16.8568 32C16.7109 32 16.5731 32 16.4272 32C16.4272 26.2183 16.4272 20.4366 16.4191 14.6549C16.4191 14.4368 16.4678 14.3238 16.6866 14.235C17.9512 13.6778 18.5915 12.3858 18.2997 11.0211C18.016 9.70487 16.8974 8.80047 15.5275 8.79239C14.1656 8.78432 13.0389 9.67257 12.7309 10.9888C12.4228 12.3373 13.047 13.6536 14.3115 14.2188C14.5466 14.3238 14.6034 14.4449 14.6034 14.6872C14.5953 20.4608 14.5953 26.2264 14.5953 32C14.4493 32 14.3115 32 14.1656 32C13.6225 31.9112 13.0794 31.8304 12.512 31.7416C12.512 31.5962 12.512 31.4751 12.512 31.354C12.512 28.1159 12.512 24.8778 12.5201 21.6397C12.5201 21.2037 12.3904 20.8645 12.0743 20.5658C11.1988 19.7179 10.3396 18.8377 9.46411 17.9818C9.3182 17.8364 9.29388 17.7314 9.37494 17.5376C9.86941 16.286 9.39926 14.8567 8.2563 14.1058C7.13766 13.379 5.64615 13.5324 4.68152 14.4853C3.72501 15.4301 3.55478 16.932 4.28432 18.0464C5.03819 19.193 6.47296 19.6614 7.74562 19.1688C7.92395 19.0961 8.02933 19.1203 8.16713 19.2576C8.94532 20.0409 9.73161 20.808 10.5017 21.5994C10.6071 21.7043 10.68 21.8981 10.68 22.0435C10.6881 24.999 10.6881 27.9544 10.6881 30.9099C10.6881 31.0148 10.68 31.1198 10.6638 31.2894C9.95047 30.9825 9.27767 30.7322 8.63729 30.4173C5.92986 29.1091 3.73311 27.2196 2.19296 24.6275C0.0853758 21.0826 -0.457731 17.2712 0.369089 13.2579C1.68227 6.90284 6.48918 2.30008 12.9173 1.23418C13.5252 1.13727 14.1494 1.07268 14.7736 1Z" fill="#D7C8C8"/>
<path d="M7.51512 16.5259C7.50778 17.0596 7.1043 17.447 6.56143 17.4397C6.04791 17.4324 5.62242 17.0011 5.63709 16.4821C5.65176 15.9777 6.07725 15.561 6.5761 15.561C7.12631 15.5683 7.52979 15.9777 7.51512 16.5259Z" fill="#D7C8C8"/>
<path d="M24.2083 17.4397C23.5295 17.447 23.0249 17.0596 23.0158 16.5259C23.0066 15.9777 23.5019 15.5683 24.1899 15.561C24.8229 15.561 25.3641 15.9923 25.3641 16.504C25.3549 17.0157 24.8321 17.4324 24.2083 17.4397Z" fill="#D7C8C8"/>
<path d="M14.5605 11.5682C14.5605 10.9169 14.9715 10.394 15.4998 10.394C16.0135 10.394 16.4318 10.8986 16.4392 11.5315C16.4465 12.2196 16.0356 12.7425 15.4998 12.7425C14.9715 12.7425 14.5678 12.2379 14.5605 11.5682Z" fill="#D7C8C8"/>
</svg>
