<svg width="77" height="84" viewBox="0 0 77 84" fill="none" xmlns="http://www.w3.org/2000/svg">
<g opacity="0.5">
<path d="M61.197 18.6363C59.0987 22.4927 56.0338 25.7712 53.7072 29.4917C51.4292 33.1393 48.68 36.5392 45.9697 39.8468C40.4859 46.5543 34.0452 52.679 26.4 56.8123C25.3848 57.3611 24.2822 56.0206 25.1468 55.1852C31.3009 49.2791 37.2898 43.2127 43.1671 37.0443C46.036 34.0427 48.8678 30.9989 51.6623 27.9131C54.6106 24.6492 57.0052 20.9045 59.9633 17.6843C60.585 17.014 61.6147 17.8737 61.197 18.6363Z" fill="#4F4747"/>
<path d="M32.4263 1.09184C32.4489 5.48208 31.3459 9.83235 31.1029 14.2136C30.8674 18.5076 30.0996 22.8119 29.3213 27.0167C27.7539 35.5375 25.0672 44.0093 20.3646 51.318C19.7402 52.2884 18.1277 51.6461 18.482 50.4973C21.0231 42.3551 23.3422 34.1522 25.5143 25.9139C26.5792 21.9006 27.5912 17.8685 28.5502 13.8174C29.558 9.53614 29.8489 5.1008 30.8863 0.853141C31.1076 -0.0338937 32.4243 0.222379 32.4263 1.09184Z" fill="#4F4747"/>
<path d="M75.4788 51.1746C71.6305 53.288 67.2807 54.3932 63.3136 56.2689C59.4268 58.1096 55.2772 59.4874 51.21 60.8085C42.9728 63.4942 34.2447 65.1729 25.5778 64.525C24.427 64.4389 24.2226 62.7153 25.4014 62.4789C33.7702 60.8295 42.0865 58.9561 50.3639 56.9365C54.3994 55.9586 58.4263 54.9252 62.4445 53.8363C66.6884 52.6805 70.7258 50.821 74.9543 49.7072C75.8395 49.4786 76.2421 50.7582 75.4788 51.1746Z" fill="#4F4747"/>
</g>
</svg>
