<svg width="84" height="77" viewBox="0 0 84 77" fill="none" xmlns="http://www.w3.org/2000/svg">
<g opacity="0.5">
<path d="M64.8335 61.198C60.977 59.0997 57.6985 56.0348 53.9781 53.7082C50.3305 51.4301 46.9306 48.681 43.6229 45.9706C36.9154 40.4869 30.7908 34.0462 26.6575 26.401C26.1086 25.3858 27.4492 24.2832 28.2846 25.1478C34.1907 31.3019 40.257 37.2908 46.4254 43.168C49.4271 46.037 52.4708 48.8688 55.5566 51.6633C58.8205 54.6116 62.5652 57.0062 65.7854 59.9642C66.4557 60.586 65.596 61.6157 64.8335 61.198Z" fill="#E9E7FF"/>
<path d="M82.3779 32.4263C77.9876 32.4489 73.6374 31.3459 69.2561 31.1029C64.9621 30.8674 60.6578 30.0996 56.4531 29.3213C47.9323 27.7539 39.4604 25.0672 32.1518 20.3646C31.1813 19.7402 31.8236 18.1277 32.9724 18.482C41.1146 21.0231 49.3175 23.3422 57.5558 25.5143C61.5691 26.5792 65.6012 27.5912 69.6523 28.5502C73.9336 29.558 78.3689 29.8489 82.6166 30.8863C83.5036 31.1076 83.2473 32.4243 82.3779 32.4263Z" fill="#E9E7FF"/>
<path d="M32.2952 75.4798C30.1817 71.6315 29.0766 67.2816 27.2008 63.3146C25.3602 59.4278 23.9824 55.2781 22.6613 51.211C19.9755 42.9737 18.2969 34.2457 18.9448 25.5788C19.0308 24.4279 20.7544 24.2236 20.9909 25.4023C22.6402 33.7712 24.5136 42.0875 26.5332 50.3649C27.5111 54.4004 28.5445 58.4273 29.6334 62.4455C30.7892 66.6894 32.6487 70.7268 33.7625 74.9552C33.9911 75.8405 32.7116 76.2431 32.2952 75.4798Z" fill="#E9E7FF"/>
</g>
</svg>
