<svg width="50" height="50" viewBox="0 0 50 50" fill="none" xmlns="http://www.w3.org/2000/svg">
<circle cx="25" cy="25" r="25" fill="#DCE764"/>
<path d="M31.4321 22.3035L24.1079 16.7649C23.5358 16.3329 22.8589 16.0727 22.1522 16.0132C21.4456 15.9536 20.7367 16.097 20.1042 16.4275C19.4717 16.758 18.9403 17.2626 18.5689 17.8855C18.1975 18.5083 18.0006 19.2251 18 19.9563V31.0391C17.9989 31.771 18.1948 32.4889 18.5658 33.1128C18.9369 33.7367 19.4686 34.2422 20.1017 34.573C20.7348 34.9038 21.4445 35.047 22.1518 34.9865C22.8591 34.926 23.5363 34.6643 24.1079 34.2305L31.4321 28.6918C31.9181 28.324 32.3133 27.8434 32.5857 27.2888C32.8581 26.7342 33 26.1213 33 25.4997C33 24.878 32.8581 24.2651 32.5857 23.7105C32.3133 23.1559 31.9181 22.6753 31.4321 22.3075V22.3035Z" fill="#191919"/>
</svg>
