<svg width="72" height="72" viewBox="0 0 72 72" fill="none" xmlns="http://www.w3.org/2000/svg">
<g clip-path="url(#clip0_109_1746)">
<path d="M24 12H12C8.8174 12 5.76516 13.2643 3.51472 15.5147C1.26428 17.7652 0 20.8174 0 24L0 36C0 37.5913 0.632141 39.1174 1.75736 40.2426C2.88258 41.3679 4.4087 42 6 42H21C20.9952 45.9768 19.4134 49.7893 16.6013 52.6013C13.7893 55.4134 9.97679 56.9952 6 57C4.80653 57 3.66193 57.4741 2.81802 58.318C1.97411 59.1619 1.5 60.3065 1.5 61.5C1.5 62.6935 1.97411 63.8381 2.81802 64.682C3.66193 65.5259 4.80653 66 6 66C12.363 65.9929 18.4633 63.462 22.9627 58.9627C27.462 54.4633 29.9929 48.363 30 42V18C30 16.4087 29.3679 14.8826 28.2426 13.7574C27.1174 12.6321 25.5913 12 24 12Z" fill="#E3F3E4"/>
<path d="M66 12H54C50.8174 12 47.7652 13.2643 45.5147 15.5147C43.2643 17.7652 42 20.8174 42 24V36C42 37.5913 42.6321 39.1174 43.7574 40.2426C44.8826 41.3679 46.4087 42 48 42H63C62.9952 45.9768 61.4134 49.7893 58.6013 52.6013C55.7893 55.4134 51.9768 56.9952 48 57C46.8065 57 45.6619 57.4741 44.818 58.318C43.9741 59.1619 43.5 60.3065 43.5 61.5C43.5 62.6935 43.9741 63.8381 44.818 64.682C45.6619 65.5259 46.8065 66 48 66C54.363 65.9929 60.4633 63.462 64.9627 58.9627C69.462 54.4633 71.9929 48.363 72 42V18C72 16.4087 71.3679 14.8826 70.2426 13.7574C69.1174 12.6321 67.5913 12 66 12Z" fill="#E3F3E4"/>
</g>
<defs>
<clipPath id="clip0_109_1746">
<rect width="72" height="72" fill="white"/>
</clipPath>
</defs>
</svg>
