<svg width="19" height="18" viewBox="0 0 19 18" fill="none" xmlns="http://www.w3.org/2000/svg">
<path d="M15.7892 5.94486C15.7993 6.0781 15.7993 6.21137 15.7993 6.34461C15.7993 10.4087 12.5341 15.0915 6.56647 15.0915C4.72794 15.0915 3.02004 14.587 1.58337 13.7114C1.84459 13.7399 2.09573 13.7495 2.367 13.7495C3.88401 13.7495 5.2805 13.2641 6.39567 12.436C4.96906 12.4074 3.77352 11.5223 3.3616 10.304C3.56255 10.3325 3.76347 10.3516 3.97446 10.3516C4.2658 10.3516 4.55718 10.3135 4.82842 10.2469C3.34153 9.96136 2.22633 8.72406 2.22633 7.22976V7.19171C2.65831 7.42013 3.16068 7.5629 3.69311 7.58191C2.81906 7.02987 2.24643 6.08762 2.24643 5.02162C2.24643 4.45056 2.40714 3.92708 2.68846 3.47023C4.28587 5.33571 6.68702 6.55397 9.37947 6.68724C9.32924 6.45881 9.29909 6.22089 9.29909 5.98294C9.29909 4.28876 10.7458 2.90869 12.5441 2.90869C13.4785 2.90869 14.3224 3.27988 14.9151 3.87951C15.6485 3.74626 16.3518 3.48927 16.9747 3.13712C16.7335 3.85097 16.2212 4.45059 15.5481 4.83128C16.2011 4.76468 16.834 4.59333 17.4167 4.35541C16.9747 4.96452 16.4221 5.50701 15.7892 5.94486Z" fill="white"/>
</svg>
