<svg width="17" height="12" viewBox="0 0 17 12" fill="none" xmlns="http://www.w3.org/2000/svg">
<path d="M2.87221 9.19847C3.49296 10.0293 4.33614 10.4927 5.28794 10.807C4.98275 11.1958 4.69307 11.5739 4.39304 11.9521C4.362 11.9893 4.28958 12 4.23785 12C3.0843 11.9787 2.01352 11.6591 1.06688 10.9774C0.249569 10.3915 -0.0814948 9.54467 0.0167898 8.52739C0.171976 6.85499 0.554768 5.24119 1.12378 3.66999C1.89454 1.54488 3.81885 0.0908549 6.01215 0.000311332C6.11043 -0.00501476 6.20872 0.0588985 6.30183 0.122812C4.97757 0.500964 3.73091 1.00162 2.66013 1.8964C6.48805 0.149441 10.3056 0.16542 14.1129 1.95499C13.6163 1.52357 13.0628 1.19336 12.4731 0.932378C11.8885 0.671399 11.2936 0.447703 10.6988 0.208029C10.7712 0.0642241 10.9005 0.000311006 11.0816 0.0216154C13.3783 0.250637 14.9871 1.45966 15.8613 3.65401C16.4717 5.17727 16.8286 6.76978 16.9838 8.40489C17.0873 9.47011 16.6941 10.3276 15.8303 10.9188C14.8784 11.5686 13.8128 11.8935 12.6696 11.9254C12.5507 11.9308 12.4679 11.8988 12.3903 11.7976C12.1265 11.4514 11.8575 11.1159 11.5626 10.7484C12.5558 10.4235 13.43 9.97076 14.0767 9.13456C14.0198 9.16652 13.9628 9.19847 13.9059 9.23043C12.6903 9.98141 11.3971 10.5087 9.97974 10.6898C8.69687 10.8549 7.43986 10.7377 6.1932 10.4181C5.07586 10.1305 3.98438 9.76837 2.94981 9.23043C2.92912 9.21978 2.89808 9.20913 2.87221 9.19847ZM12.6127 6.85499C12.6127 5.98684 11.9351 5.25184 11.1333 5.24651C10.3315 5.24119 9.62798 5.98684 9.63316 6.83902C9.63833 7.70184 10.3263 8.43684 11.1281 8.43684C11.9299 8.43684 12.6127 7.70717 12.6127 6.85499ZM4.31027 6.82836C4.31027 7.69652 4.98275 8.43152 5.78454 8.43684C6.57599 8.4475 7.28467 7.69652 7.28467 6.84967C7.28467 5.99217 6.59151 5.24651 5.79489 5.25184C4.99826 5.25184 4.31027 5.97619 4.31027 6.82836Z" fill="white"/>
</svg>
