<svg width="13" height="16" viewBox="0 0 13 16" fill="none" xmlns="http://www.w3.org/2000/svg">
<path d="M0.25 4.78469V12.6667C0.250992 13.5504 0.580551 14.3977 1.16639 15.0225C1.75222 15.6474 2.5465 15.999 3.375 16H9.625C10.4535 15.999 11.2478 15.6474 11.8336 15.0225C12.4194 14.3977 12.749 13.5504 12.75 12.6667V4.78469C12.75 4.42808 12.6605 4.07797 12.491 3.77063C12.3214 3.46328 12.0779 3.20989 11.7856 3.03669L6.80375 0.0840275C6.71085 0.0289207 6.6063 0 6.5 0C6.3937 0 6.28915 0.0289207 6.19625 0.0840275L1.21438 3.03669C0.922128 3.20989 0.678609 3.46328 0.509048 3.77063C0.339486 4.07797 0.250048 4.42808 0.25 4.78469ZM6.5 3.66669C6.68542 3.66669 6.86668 3.72534 7.02085 3.83522C7.17502 3.94511 7.29518 4.10128 7.36614 4.28401C7.43709 4.46674 7.45566 4.6678 7.41949 4.86178C7.38331 5.05577 7.29402 5.23395 7.16291 5.3738C7.0318 5.51365 6.86475 5.60889 6.6829 5.64748C6.50104 5.68606 6.31254 5.66626 6.14123 5.59057C5.96993 5.51489 5.82351 5.38671 5.7205 5.22226C5.61748 5.05782 5.5625 4.86448 5.5625 4.66669C5.5625 4.40148 5.66127 4.14712 5.83709 3.95959C6.0129 3.77205 6.25136 3.66669 6.5 3.66669Z" fill="#DCE764"/>
</svg>
