<svg width="19" height="18" viewBox="0 0 19 18" fill="none" xmlns="http://www.w3.org/2000/svg">
<path d="M17.0859 5.37679C16.9038 4.72722 16.3672 4.21565 15.686 4.04203C14.4513 3.72656 9.50004 3.72656 9.50004 3.72656C9.50004 3.72656 4.54884 3.72656 3.31406 4.04203C2.63284 4.21567 2.09632 4.72722 1.91423 5.37679C1.58337 6.55417 1.58337 9.01065 1.58337 9.01065C1.58337 9.01065 1.58337 11.4671 1.91423 12.6445C2.09632 13.2941 2.63284 13.7843 3.31406 13.958C4.54884 14.2734 9.50004 14.2734 9.50004 14.2734C9.50004 14.2734 14.4512 14.2734 15.686 13.958C16.3672 13.7843 16.9038 13.2941 17.0859 12.6445C17.4167 11.4671 17.4167 9.01065 17.4167 9.01065C17.4167 9.01065 17.4167 6.55417 17.0859 5.37679ZM7.88071 11.241V6.78035L12.019 9.01071L7.88071 11.241Z" fill="white"/>
</svg>
